#!OML:ASF H:\ManfredETheater\Project 1\Capture day 1\Session 1\subject.ASF
:FULLY-SPECIFIED
:DEGREES
49
root 2.54099 15.9908 11.6974 -159.554 -0.450991 -175.601
lowerback 20.4918 -0.800618 3.60053
upperback -0.456299 0.755138 4.45582
thorax -12.1124 0.466112 2.65989
lowerneck -23.7101 -2.58111 -3.3913
upperneck -2.45138 -1.18289 -0.754979
head 2.88897 -0.072805 0.220077
rclavicle 3.57812e-015 1.06549e-013
rhumerus -40.1736 4.259 -88.7291
rradius 85.5633
rwrist -12.7975
rhand -28.0222 13.3365
rfingers 7.12502
rthumb -1.40739 -16.6386
lclavicle 3.57812e-015 1.06549e-013
lhumerus -44.5714 -3.42729 90.8602
lradius 81.6509
lwrist 10.3349
lhand -26.0031 -11.8225
lfingers 7.12502
lthumb 0.542732 18.1565
rfemur -41.556 -4.82057 32.9129
rtibia 62.3193
rfoot -27.5521 -14.2941
rtoes -36.423
lfemur -39.3016 2.45578 -14.5494
ltibia 102.751
lfoot 2.73178 -0.650962
ltoes 17.7994
50
root 2.56324 15.9525 11.1308 -159.34 -0.609971 -175.316
lowerback 20.2508 -0.7722 3.79416
upperback -0.594453 0.824746 4.46374
thorax -12.1332 0.483326 2.53755
lowerneck -23.8768 -2.49273 -3.17207
upperneck -2.03225 -1.14341 -0.895999
head 3.03997 -0.0857238 0.14252
rclavicle -4.37326e-015 -3.81667e-014
rhumerus -37.7441 6.31484 -89.5397
rradius 88.4476
rwrist -12.8664
rhand -27.64 13.4132
rfingers 7.12502
rthumb -1.03821 -16.5641
lclavicle -4.37326e-015 -3.81667e-014
lhumerus -47.3429 -3.85189 90.5364
lradius 81.3026
lwrist 9.83105
lhand -25.9665 -12.0074
lfingers 7.12502
lthumb 0.578125 17.9716
rfemur -38.9367 -4.76337 32.9839
rtibia 61.5152
rfoot -28.6828 -14.8173
rtoes -37.7527
lfemur -43.7603 3.0628 -14.0349
ltibia 104.824
lfoot 1.05523 -0.115814
ltoes 17.135
51
root 2.58374 15.9223 10.5552 -159.12 -0.751316 -175.174
lowerback 19.9661 -0.727086 3.88229
upperback -0.747672 0.872969 4.41622
thorax -12.1443 0.491318 2.42033
lowerneck -24.0221 -2.43523 -2.97657
upperneck -1.59857 -1.14462 -0.997441
head 3.19371 -0.117738 0.0773379
rclavicle 5.96354e-015 -5.96354e-014
rhumerus -35.5485 8.23563 -90.1611
rradius 91.7234
rwrist -12.8649
rhand -27.1881 13.6023
rfingers 7.12502
rthumb -0.601733 -16.3765
lclavicle 5.96354e-015 -5.96354e-014
lhumerus -50.4338 -4.53982 90.3739
lradius 81.8227
lwrist 9.70189
lhand -25.7 -12.1564
lfingers 7.12502
lthumb 0.835511 17.8217
rfemur -36.2172 -4.83959 32.9031
rtibia 60.4584
rfoot -29.5494 -15.0623
rtoes -38.9838
lfemur -48.1672 3.53022 -13.8096
ltibia 106.312
lfoot -0.501953 0.31337
ltoes 16.1501
52
root 2.60238 15.9037 9.96836 -158.917 -0.879865 -175.104
lowerback 19.645 -0.656956 3.94079
upperback -0.902637 0.935081 4.32566
thorax -12.1349 0.504146 2.26776
lowerneck -24.1198 -2.43357 -2.81965
upperneck -1.19349 -1.21368 -1.04995
head 3.33319 -0.179048 0.0274373
rclavicle -7.15625e-015 -5.725e-014
rhumerus -33.598 9.95278 -90.5893
rradius 95.3236
rwrist -12.7906
rhand -26.7049 13.879
rfingers 7.12502
rthumb -0.135096 -16.1007
lclavicle -7.15625e-015 -5.725e-014
lhumerus -53.7478 -5.41833 90.3867
lradius 83.0684
lwrist 9.95774
lhand -25.243 -12.277
lfingers 7.12502
lthumb 1.27687 17.6989
rfemur -33.3441 -4.99547 32.7264
rtibia 59.1052
rfoot -30.0852 -15.0168
rtoes -40.1478
lfemur -52.4173 3.8557 -13.77
ltibia 107.175
lfoot -1.97775 0.589574
ltoes 14.8463
53
root 2.61887 15.8986 9.36871 -158.722 -0.983326 -175.049
lowerback 19.2744 -0.142651 4.16763
upperback -1.08903 0.950632 4.19281
thorax -12.1073 0.205724 2.04549
lowerneck -24.1519 -2.50455 -2.7143
upperneck -0.842411 -1.36863 -1.04513
head 3.448 -0.276628 -0.00413449
rclavicle 7.95139e-015 -1.43125e-014
rhumerus -31.893 11.4455 -90.8194
rradius 99.1654
rwrist -12.6557
rhand -26.2446 14.2266
rfingers 7.12502
rthumb 0.309538 -15.7529
lclavicle 7.95139e-015 -1.43125e-014
lhumerus -57.1842 -6.40254 90.5543
lradius 84.8522
lwrist 10.5129
lhand -24.6909 -12.331
lfingers 7.12502
lthumb 1.8101 17.6411
rfemur -30.3152 -5.14992 32.4916
rtibia 57.4274
rfoot -30.2038 -14.6606
rtoes -41.2897
lfemur -56.4378 4.06549 -13.8307
ltibia 107.398
lfoot -3.40882 0.673153
ltoes 13.2313
54
root 2.63359 15.9082 8.75481 -158.541 -1.06826 -175.009
lowerback 18.8529 -0.0166278 4.26842
upperback -1.23609 1.12619 4.03084
thorax -12.0271 0.284608 1.75213
lowerneck -24.1209 -2.65204 -2.66274
upperneck -0.548931 -1.61289 -0.986276
head 3.53733 -0.411975 -0.0184148
rclavicle 2.78299e-015 1.27222e-014
rhumerus -30.4161 12.7149 -90.8394
rradius 103.154
rwrist -12.4722
rhand -25.8478 14.6586
rfingers 7.12502
rthumb 0.692738 -15.32
lclavicle 2.78299e-015 1.27222e-014
lhumerus -60.6437 -7.40607 90.8308
lradius 86.9705
lwrist 11.2481
lhand -24.1001 -12.3091
lfingers 7.12502
lthumb 2.38072 17.6573
rfemur -27.1285 -5.25167 32.1893
rtibia 55.4138
rfoot -29.8425 -13.9699
rtoes -42.418
lfemur -60.1473 4.15093 -13.9594
ltibia 106.977
lfoot -4.80513 0.543116
ltoes 11.4496
55
root 2.64663 15.9321 8.12652 -158.357 -1.12975 -174.985
lowerback 18.3615 0.15857 4.38849
upperback -1.37803 1.36273 3.83472
thorax -11.8961 0.390572 1.3945
lowerneck -24.045 -2.87094 -2.66681
upperneck -0.298845 -1.93882 -0.873895
head 3.60835 -0.58183 -0.0146672
rclavicle -7.95139e-016 -2.54444e-014
rhumerus -29.1403 13.7807 -90.6401
rradius 107.207
rwrist -12.2556
rhand -25.5056 15.1118
rfingers 7.12502
rthumb 1.02323 -14.8655
lclavicle -7.95139e-016 -2.54444e-014
lhumerus -64.0408 -8.35281 91.1566
lradius 89.2364
lwrist 12.0325
lhand -23.5226 -12.247
lfingers 7.12502
lthumb 2.93843 17.7125
rfemur -23.824 -5.2469 31.8159
rtibia 53.0753
rfoot -28.9583 -12.879
rtoes -43.4677
lfemur -63.5138 4.12741 -14.1326
ltibia 105.934
lfoot -6.17194 0.184082
ltoes 9.4873
56
root 2.6577 15.9686 7.48412 -158.179 -1.17406 -174.963
lowerback 17.8081 0.378072 4.5356
upperback -1.50797 1.65477 3.61024
thorax -11.709 0.521008 0.978978
lowerneck -23.9379 -3.14679 -2.71442
upperneck -0.0814184 -2.33057 -0.713754
head 3.6666 -0.779241 0.004832
rclavicle 7.55382e-015 1.11319e-014
rhumerus -28.0302 14.6734 -90.2181
rradius 111.25
rwrist -12.0234
rhand -25.2489 15.5851
rfingers 7.12502
rthumb 1.27118 -14.3909
lclavicle 7.55382e-015 1.11319e-014
lhumerus -67.3098 -9.18343 91.4671
lradius 91.4978
lwrist 12.7502
lhand -22.9967 -12.1586
lfingers 7.12502
lthumb 3.44624 17.7933
rfemur -20.4212 -5.1027 31.3864
rtibia 50.4308
rfoot -27.5038 -11.3154
rtoes -44.3408
lfemur -66.4964 4.01377 -14.3149
ltibia 104.308
lfoot -7.49695 -0.399362
ltoes 7.59602
57
root 2.66631 16.0163 6.82786 -158.015 -1.22237 -174.933
lowerback 17.1979 0.626884 4.72148
upperback -1.6206 1.98437 3.36827
thorax -11.4614 0.66761 0.518921
lowerneck -23.793 -2.28347 -3.31696
upperneck 0.136651 -3.05857 -0.506309
head 3.72135 -1.98159 0.0403703
rclavicle -1.74931e-014 -7.15625e-015
rhumerus -27.0531 15.4139 -89.5785
rradius 115.219
rwrist -11.7596
rhand -25.0012 16.0236
rfingers 7.12502
rthumb 1.5104 -13.9508
lclavicle -1.74931e-014 -7.15625e-015
lhumerus -70.4027 -9.85335 91.7089
lradius 93.6445
lwrist 13.3463
lhand -22.5523 -12.0447
lfingers 7.12502
lthumb 3.87544 17.8998
rfemur -16.9365 -4.819 30.925
rtibia 47.4851
rfoot -25.3855 -9.22613
rtoes -44.9194
lfemur -69.0769 3.81757 -14.4756
ltibia 102.146
lfoot -8.75818 -1.18851
ltoes 5.81926
58
root 2.67257 16.0729 6.15873 -157.878 -1.30354 -174.879
lowerback 16.5454 0.887119 4.9546
upperback -1.71216 2.32992 3.12486
thorax -11.1571 0.820637 0.0355994
lowerneck -23.666 -2.652 -3.39489
upperneck 0.332999 -3.49647 -0.262221
head 3.77593 -2.16423 0.0876114
rclavicle 1.39149e-014 2.14687e-014
rhumerus -26.1966 16.0277 -88.7502
rradius 119.055
rwrist -11.4744
rhand -24.7574 16.4346
rfingers 7.12502
rthumb 1.74588 -13.538
lclavicle 1.39149e-014 2.14687e-014
lhumerus -73.288 -10.337 91.844
lradius 95.6032
lwrist 13.8206
lhand -22.2018 -11.9548
lfingers 7.12502
lthumb 4.21393 17.9833
rfemur -13.3735 -4.40655 30.4722
rtibia 44.2281
rfoot -22.4261 -6.64211
rtoes -45.0655
lfemur -71.2516 3.55476 -14.5835
ltibia 99.5039
lfoot -9.9575 -2.15148
ltoes 4.13834
59
root 2.67661 16.1367 5.47756 -157.798 -1.45448 -174.796
lowerback 15.8816 1.13505 5.23952
upperback -1.77412 2.662 2.89886
thorax -10.8055 0.966743 -0.44431
lowerneck -23.5693 -3.01575 -3.46759
upperneck 0.563636 -3.92839 -0.0125656
head 3.84693 -2.34334 0.135138
rclavicle -1.74931e-014 -1.19271e-014
rhumerus -25.4419 16.5403 -87.7582
rradius 122.696
rwrist -11.1998
rhand -24.4984 16.8082
rfingers 7.12502
rthumb 1.99604 -13.1622
lclavicle -1.74931e-014 -1.19271e-014
lhumerus -75.9389 -10.6162 91.857
lradius 97.3242
lwrist 14.2028
lhand -21.9402 -11.8777
lfingers 7.12502
lthumb 4.46648 18.0552
rfemur -9.72042 -3.88155 30.0613
rtibia 40.626
rfoot -18.2385 -3.7586
rtoes -44.6452
lfemur -73.0003 3.21975 -14.6195
ltibia 96.4346
lfoot -11.0733 -3.24986
ltoes 2.63833
60
root 2.67846 16.2056 4.78551 -157.793 -1.69346 -174.685
lowerback 15.2312 1.35528 5.57034
upperback -1.80428 2.96043 2.7015
thorax -10.4214 1.09723 -0.900999
lowerneck -23.5005 -3.36237 -3.53314
upperneck 0.830789 -4.33876 0.242779
head 3.93452 -2.51098 0.184053
rclavicle -1.39149e-015 -2.94201e-014
rhumerus -24.7957 16.958 -86.6406
rradius 126.1
rwrist -10.9851
rhand -24.209 17.1705
rfingers 7.12502
rthumb 2.27546 -12.7971
lclavicle -1.39149e-015 -2.94201e-014
lhumerus -78.3401 -10.6974 91.7471
lradius 98.7886
lwrist 14.5447
lhand -21.7628 -11.8289
lfingers 7.12502
lthumb 4.63781 18.1003
rfemur -5.98616 -3.25904 29.7207
rtibia 36.7029
rfoot -12.4819 -1.04575
rtoes -43.636
lfemur -74.3256 2.81175 -14.5866
ltibia 93.0025
lfoot -12.1191 -4.41505
ltoes 1.21197
61
root 2.67888 16.2766 4.0846 -157.864 -2.03195 -174.564
lowerback 14.6005 1.53592 5.91797
upperback -1.80479 3.2049 2.54033
thorax -10.0152 1.20454 -1.30706
lowerneck -23.4625 -3.68621 -3.59841
upperneck 1.15109 -4.71747 0.508922
head 4.04449 -2.66117 0.237672
rclavicle -5.56597e-015 -7.95139e-015
rhumerus -24.2469 17.2909 -85.4325
rradius 129.199
rwrist -10.8842
rhand -23.9026 17.5107
rfingers 7.12502
rthumb 2.57144 -12.4536
lclavicle -5.56597e-015 -7.95139e-015
lhumerus -80.4766 -10.5942 91.5198
lradius 99.9931
lwrist 14.881
lhand -21.6423 -11.8205
lfingers 7.12502
lthumb 4.75418 18.1061
rfemur -2.16021 -2.53959 29.4758
rtibia 32.4457
rfoot -5.13636 0.912578
rtoes -41.8381
lfemur -75.262 2.33378 -14.5098
ltibia 89.273
lfoot -13.1058 -5.57698
ltoes -0.191937
